<?xml version="1.0" standalone="no"?>
<!DOCTYPE svg PUBLIC "-//W3C//DTD SVG 20010904//EN"
 "http://www.w3.org/TR/2001/REC-SVG-20010904/DTD/svg10.dtd">
<svg version="1.0" xmlns="http://www.w3.org/2000/svg"
 width="800.000000pt" height="427.000000pt" viewBox="0 0 800.000000 427.000000"
 preserveAspectRatio="xMidYMid meet">
<metadata>
Created by potrace 1.16, written by Peter Selinger 2001-2019
</metadata>
<g transform="translate(0.000000,427.000000) scale(0.100000,-0.100000)"
fill="#000000" stroke="none">
<path d="M572 2138 l3 -1603 168 -3 167 -2 0 1440 0 1440 393 -2 392 -3 3
-1157 2 -1158 165 0 165 0 2 1158 3 1157 393 3 392 2 0 -1160 0 -1160 168 2
167 3 3 1323 2 1322 -1295 0 -1295 0 2 -1602z"/>
<path d="M3380 2305 l0 -1435 -395 0 -395 0 0 1155 0 1155 -165 0 -165 0 0
-1155 0 -1155 -395 0 -395 0 0 1155 0 1155 -167 0 -168 0 0 -1325 0 -1325
1293 0 1292 0 0 1605 0 1605 -170 0 -170 0 0 -1435z"/>
<path d="M3950 3250 l0 -450 55 0 55 0 0 378 1 377 162 -378 161 -378 36 3 35
3 160 374 160 375 3 -377 2 -377 55 0 55 0 0 450 0 451 -81 -3 -82 -3 -151
-347 c-83 -191 -154 -348 -157 -348 -3 0 -73 156 -155 348 l-150 347 -82 3
-82 3 0 -451z"/>
<path d="M5368 3618 c-20 -46 -108 -247 -197 -447 -88 -200 -161 -366 -161
-368 0 -2 27 -3 61 -1 l61 3 43 105 43 105 229 3 228 2 44 -110 45 -110 62 0
63 0 -43 103 c-24 56 -110 258 -191 450 l-148 347 -52 0 -52 0 -35 -82z m172
-268 c45 -113 84 -211 87 -217 4 -10 -35 -13 -176 -13 -100 0 -181 3 -181 8 0
4 34 88 76 187 42 99 82 195 90 214 8 19 16 32 18 30 2 -2 41 -96 86 -209z"/>
<path d="M5940 3650 l0 -50 255 0 c140 0 255 -2 255 -5 0 -6 -104 -149 -367
-503 -139 -187 -143 -194 -143 -242 l0 -50 331 0 330 0 -3 48 -3 47 -261 5
-262 5 259 353 c248 337 259 354 259 397 l0 45 -325 0 -325 0 0 -50z"/>
<path d="M6745 3250 l0 -450 298 0 297 0 0 50 0 50 -245 0 -245 0 0 160 0 160
215 0 215 0 0 50 0 50 -215 0 -215 0 0 140 0 140 230 0 c127 0 230 3 231 8 0
4 1 26 2 50 l2 42 -285 0 -285 0 0 -450z"/>
<path d="M3950 2151 l0 -451 178 0 c251 0 342 27 406 118 38 54 48 149 22 217
-22 55 -83 112 -140 127 l-44 12 39 19 c123 60 157 220 69 321 -17 18 -54 44
-82 57 -49 22 -68 24 -250 27 l-198 4 0 -451z m386 330 c56 -26 74 -54 74
-118 0 -44 -5 -58 -30 -86 -39 -44 -86 -57 -214 -57 l-106 0 0 140 0 140 118
0 c93 0 126 -4 158 -19z m41 -391 c79 -44 106 -151 56 -218 -40 -53 -86 -67
-235 -70 l-138 -4 0 162 0 162 138 -4 c122 -3 142 -6 179 -28z"/>
<path d="M5031 2558 c-11 -24 -63 -142 -116 -263 -53 -121 -126 -287 -162
-370 -36 -82 -74 -167 -84 -187 l-19 -38 63 0 63 0 45 110 44 110 228 -2 229
-3 43 -105 43 -105 62 -3 c56 -3 62 -1 57 15 -5 17 -296 704 -350 826 l-26 57
-51 0 c-50 0 -51 0 -69 -42z m160 -318 l87 -220 -184 0 -184 0 15 38 c81 195
171 402 175 402 3 -1 44 -100 91 -220z"/>
<path d="M5660 2150 l0 -450 53 0 52 0 -2 370 c-1 204 1 370 5 370 4 0 90
-120 192 -267 102 -146 218 -312 258 -369 l73 -104 69 0 70 0 0 450 0 450 -55
0 -55 0 -2 -372 -3 -373 -241 345 c-132 190 -249 357 -259 373 -16 25 -22 27
-86 27 l-69 0 0 -450z"/>
<path d="M6650 2150 l0 -450 55 0 55 0 0 231 c0 127 4 229 8 227 5 -1 105
-105 222 -230 l213 -228 80 0 79 0 -183 191 c-212 221 -278 292 -279 300 0 3
99 96 220 207 l220 202 -77 0 -78 0 -205 -195 c-113 -107 -208 -194 -212 -195
-5 0 -8 88 -8 195 l0 195 -55 0 -55 0 0 -450z"/>
<path d="M3999 1521 c-72 -23 -109 -76 -109 -156 0 -89 60 -148 151 -149 89 0
153 64 153 154 0 82 -52 142 -134 154 -19 3 -47 1 -61 -3z m95 -36 c41 -20 66
-63 66 -115 0 -115 -125 -170 -205 -90 -27 27 -30 37 -30 89 0 49 4 64 25 86
43 47 89 56 144 30z"/>
<path d="M4984 1511 c-55 -25 -84 -73 -84 -141 0 -89 47 -142 136 -155 91 -14
185 82 169 173 -9 58 -40 101 -88 122 -53 24 -81 25 -133 1z m120 -26 c93 -44
87 -203 -9 -235 -81 -27 -154 21 -162 107 -4 39 0 55 19 83 40 59 91 74 152
45z"/>
<path d="M5340 1523 c-33 -12 -60 -47 -60 -77 0 -44 11 -56 82 -91 51 -24 64
-35 66 -57 2 -18 -4 -31 -20 -42 -29 -21 -53 -20 -89 1 -21 13 -32 14 -40 6
-17 -17 36 -48 82 -48 54 0 93 32 97 79 4 46 -15 70 -67 87 -57 18 -81 37 -81
64 0 46 64 70 107 40 17 -12 23 -12 32 -1 20 24 -65 55 -109 39z"/>
<path d="M5740 1523 c-33 -12 -60 -47 -60 -77 0 -44 11 -56 82 -91 51 -24 64
-35 66 -57 2 -18 -4 -31 -20 -42 -29 -21 -53 -20 -89 1 -21 13 -32 14 -40 6
-18 -18 38 -48 87 -48 57 0 94 34 94 85 0 44 -18 63 -80 85 -56 20 -70 32 -70
61 0 45 65 69 107 39 17 -12 23 -12 32 -1 20 24 -65 55 -109 39z"/>
<path d="M6964 1519 c-41 -12 -91 -69 -100 -114 -29 -158 160 -259 265 -140
74 85 37 226 -67 255 -43 12 -56 11 -98 -1z m126 -47 c14 -10 32 -38 40 -60
40 -114 -83 -215 -181 -149 -79 53 -71 185 14 223 39 17 92 11 127 -14z"/>
<path d="M7290 1512 c-24 -12 -37 -27 -44 -50 -13 -45 15 -81 84 -107 67 -25
81 -55 45 -91 -28 -28 -48 -30 -89 -9 -35 18 -53 10 -31 -15 39 -43 134 -30
160 21 31 58 15 84 -75 128 -51 24 -55 29 -55 61 0 30 4 35 32 43 24 7 38 6
55 -5 24 -15 48 -14 48 3 0 11 -60 39 -82 39 -7 0 -29 -8 -48 -18z"/>
<path d="M4280 1370 c0 -127 2 -150 15 -150 12 0 15 14 15 70 l0 70 70 0 c56
0 70 3 70 15 0 12 -14 15 -70 15 l-70 0 0 50 0 50 75 0 c60 0 75 3 75 15 0 12
-17 15 -90 15 l-90 0 0 -150z"/>
<path d="M6025 1488 c-7 -18 -36 -85 -64 -148 -28 -63 -51 -115 -51 -117 0 -2
8 -3 18 -3 13 0 24 13 35 40 l15 40 76 0 76 0 16 -40 c11 -26 22 -40 34 -40
16 0 9 22 -46 147 -35 81 -64 149 -64 150 0 2 -7 3 -16 3 -8 0 -21 -15 -29
-32z"/>
<path d="M6260 1371 c0 -126 2 -151 15 -151 12 0 15 23 17 128 l3 127 88 -127
c62 -90 94 -128 107 -128 19 0 20 8 20 150 0 125 -2 150 -15 150 -12 0 -15
-23 -17 -125 l-3 -126 -86 123 c-58 84 -92 124 -107 126 -22 3 -22 2 -22 -147z"/>
<path d="M3891 770 l2 -240 1738 0 1739 0 0 240 0 240 -1741 0 -1740 0 2 -240z"/>
</g>
</svg>
